<?xml version="1.0" standalone="no"?>
<!DOCTYPE svg PUBLIC "-//W3C//DTD SVG 20010904//EN"
 "http://www.w3.org/TR/2001/REC-SVG-20010904/DTD/svg10.dtd">
<svg version="1.0" xmlns="http://www.w3.org/2000/svg"
 width="2193.000000pt" height="2193.000000pt" viewBox="0 0 2193.000000 2193.000000"
 preserveAspectRatio="xMidYMid meet">
<metadata>
Created by potrace 1.11, written by Peter Selinger 2001-2013
</metadata>
<g transform="translate(0.000000,2193.000000) scale(0.100000,-0.100000)"
fill="#000000" stroke="none">
<path d="M10538 21925 c-1 -1 -61 -6 -133 -9 -71 -4 -139 -9 -150 -11 -11 -3
-51 -7 -90 -10 -121 -10 -323 -35 -390 -49 -11 -2 -40 -7 -65 -10 -173 -24
-563 -111 -760 -171 -47 -14 -123 -37 -169 -51 -369 -110 -865 -325 -1291
-560 -133 -74 -404 -244 -555 -348 -147 -102 -425 -310 -481 -361 -6 -5 -33
-28 -60 -50 -54 -44 -112 -95 -224 -194 -78 -68 -492 -480 -545 -541 -17 -19
-66 -76 -110 -126 -106 -120 -120 -137 -185 -219 -30 -38 -58 -72 -61 -75 -33
-24 -369 -503 -488 -695 -55 -88 -74 -121 -138 -235 -98 -174 -232 -442 -298
-595 -72 -165 -145 -358 -199 -517 -30 -92 -87 -275 -91 -297 -2 -9 -15 -59
-29 -111 -68 -250 -132 -606 -161 -895 -4 -38 -9 -77 -10 -86 -26 -142 -26
-926 0 -1135 2 -16 6 -62 10 -102 3 -41 8 -82 10 -92 2 -10 6 -40 10 -67 13
-95 16 -110 41 -243 42 -221 128 -558 179 -700 9 -25 18 -52 20 -60 7 -30 83
-236 116 -315 4 -11 30 -74 58 -140 66 -160 272 -591 301 -630 4 -5 24 -41 45
-80 84 -154 102 -186 193 -335 151 -249 388 -613 403 -618 5 -2 9 -8 9 -13 0
-8 27 -49 77 -114 5 -5 22 -30 38 -55 17 -25 34 -49 38 -55 4 -5 72 -98 150
-205 78 -107 204 -278 280 -380 177 -237 178 -239 203 -269 11 -14 49 -64 85
-111 35 -47 66 -87 69 -90 3 -3 39 -47 80 -99 40 -52 79 -102 86 -110 17 -21
392 -496 462 -586 202 -260 518 -712 652 -933 23 -37 45 -74 50 -82 9 -14 35
-59 93 -160 108 -188 220 -417 362 -735 227 -508 297 -719 299 -895 1 -156
-34 -235 -174 -390 -112 -125 -168 -224 -184 -325 -18 -106 -1 -252 41 -358
63 -161 220 -275 451 -328 71 -16 83 -18 132 -24 25 -3 56 -7 70 -10 53 -10
228 -17 570 -20 195 -2 362 -4 370 -4 13 -1 15 -36 15 -251 l0 -250 -45 0
c-110 -2 -358 -15 -435 -24 -355 -42 -578 -122 -717 -259 -96 -94 -140 -200
-140 -336 0 -116 26 -199 90 -281 55 -70 101 -109 185 -155 100 -55 288 -117
392 -130 11 -1 34 -5 50 -8 28 -6 106 -15 185 -23 41 -4 253 -15 355 -19 39
-1 72 -3 75 -4 6 -1 5 -389 -1 -395 -2 -2 -87 -6 -189 -10 -102 -3 -210 -8
-240 -11 -98 -11 -299 -46 -376 -66 -386 -101 -569 -324 -520 -634 10 -62 65
-165 119 -223 114 -120 340 -218 572 -248 17 -2 40 -6 53 -8 22 -5 90 -13 187
-22 22 -2 119 -6 215 -10 96 -3 177 -8 179 -10 6 -6 7 -334 1 -344 -3 -5 -33
-18 -68 -30 -225 -78 -345 -209 -374 -407 -36 -250 87 -446 344 -550 34 -14
68 -26 75 -27 21 -3 27 -15 25 -51 l-3 -35 1256 0 c835 0 1254 3 1250 10 -3 6
2 10 12 11 10 0 27 2 38 4 11 1 36 5 55 8 140 21 316 79 403 134 103 65 183
165 212 267 18 62 24 202 11 276 -20 116 -105 231 -221 295 -94 53 -293 117
-405 132 -25 3 -52 7 -60 9 -8 1 -22 3 -30 3 -13 1 -15 26 -15 164 l0 162 135
2 c74 0 252 2 395 4 351 4 491 16 670 61 280 69 425 246 425 516 -1 116 -11
166 -52 250 -69 140 -220 233 -473 292 -49 11 -101 23 -115 26 -14 4 -38 8
-55 10 -16 2 -52 8 -80 14 -27 5 -86 12 -130 16 -44 3 -93 8 -110 10 -38 4
-312 16 -470 19 -66 1 -125 3 -130 4 -12 1 -15 395 -2 407 4 4 161 8 350 10
450 3 614 13 802 49 125 25 266 97 337 173 92 98 129 208 129 374 -1 245 -131
403 -406 492 -83 27 -334 81 -420 90 -227 24 -226 24 -525 32 -146 3 -267 8
-270 11 -3 3 -5 112 -5 244 0 206 2 239 15 240 8 0 258 2 555 4 297 2 565 6
595 9 30 3 78 8 105 11 298 32 518 147 603 318 88 173 89 384 5 550 -25 51
-77 131 -98 153 -5 6 -26 30 -45 54 -19 24 -40 48 -46 54 -35 36 -96 141 -107
185 -14 54 -15 142 -3 245 6 47 56 258 80 336 18 57 27 85 55 160 18 46 38 98
45 115 7 16 33 77 57 135 84 201 287 599 432 845 38 66 75 129 82 140 100 174
349 546 505 755 11 14 55 73 98 132 44 58 95 126 114 150 19 23 101 129 183
233 82 105 157 199 167 210 10 11 91 113 180 226 148 186 227 289 581 752 60
78 119 156 131 172 13 17 49 64 79 105 31 41 60 80 64 85 5 6 26 35 48 65 22
30 42 57 45 60 10 9 226 314 315 445 80 117 249 381 300 467 99 167 229 408
304 563 62 127 201 446 201 460 0 4 6 21 14 38 34 75 123 348 170 522 1 6 8
30 15 55 7 25 15 56 18 70 2 14 12 59 23 100 16 67 28 124 35 170 9 56 17 97
20 110 2 8 7 35 10 60 3 25 8 52 10 60 2 8 7 41 10 73 4 32 8 67 10 77 3 17 8
62 20 185 27 289 27 916 0 1138 -2 15 -7 62 -10 105 -4 42 -9 84 -10 92 -1 8
-6 40 -10 70 -9 78 -14 104 -30 195 -7 44 -16 94 -19 110 -43 273 -153 669
-289 1050 -177 491 -512 1114 -851 1580 -122 168 -360 467 -431 541 -11 12
-54 59 -95 104 -181 200 -564 573 -760 740 -36 30 -67 57 -70 60 -16 18 -234
191 -345 274 -143 108 -468 326 -484 326 -6 0 -11 3 -11 8 0 4 -10 12 -23 18
-12 6 -92 51 -177 99 -156 88 -412 216 -550 275 -41 18 -88 38 -105 45 -236
104 -671 247 -945 310 -133 31 -281 64 -305 69 -16 3 -42 7 -56 10 -37 8 -316
54 -369 61 -48 7 -67 9 -195 25 -130 17 -146 19 -225 25 -41 4 -88 8 -105 10
-16 2 -74 7 -130 11 -55 3 -116 8 -135 11 -40 5 -786 13 -792 8z"/>
</g>
</svg>
